<svg width="66" height="66" viewBox="0 0 66 66" fill="none" xmlns="http://www.w3.org/2000/svg">
<path d="M33 5.5C27.561 5.5 22.2442 7.11285 17.7218 10.1346C13.1995 13.1563 9.67474 17.4512 7.59333 22.4762C5.51192 27.5012 4.96732 33.0305 6.02842 38.365C7.08951 43.6995 9.70863 48.5995 13.5546 52.4454C17.4005 56.2914 22.3006 58.9105 27.635 59.9716C32.9695 61.0327 38.4988 60.4881 43.5238 58.4067C48.5488 56.3253 52.8437 52.8005 55.8654 48.2782C58.8872 43.7558 60.5 38.439 60.5 33C60.5 29.3886 59.7887 25.8127 58.4067 22.4762C57.0247 19.1398 54.9991 16.1082 52.4454 13.5546C49.8918 11.001 46.8603 8.97532 43.5238 7.59331C40.1874 6.21131 36.6114 5.5 33 5.5ZM33 55C28.6488 55 24.3953 53.7097 20.7775 51.2923C17.1596 48.8749 14.3398 45.439 12.6747 41.419C11.0095 37.3991 10.5739 32.9756 11.4227 28.708C12.2716 24.4404 14.3669 20.5204 17.4437 17.4437C20.5204 14.3669 24.4404 12.2716 28.708 11.4227C32.9756 10.5738 37.3991 11.0095 41.419 12.6747C45.439 14.3398 48.8749 17.1596 51.2923 20.7775C53.7097 24.3953 55 28.6488 55 33C55 38.8348 52.6822 44.4305 48.5564 48.5564C44.4306 52.6822 38.8348 55 33 55Z" fill="#F24E1E"/>
<path d="M40.4523 25.5473C40.1967 25.2896 39.8925 25.085 39.5574 24.9454C39.2223 24.8058 38.8629 24.7339 38.4998 24.7339C38.1368 24.7339 37.7774 24.8058 37.4422 24.9454C37.1071 25.085 36.803 25.2896 36.5473 25.5473L32.9998 29.1223L29.4523 25.5473C28.9345 25.0295 28.2322 24.7386 27.4998 24.7386C26.7675 24.7386 26.0652 25.0295 25.5473 25.5473C25.0295 26.0652 24.7386 26.7675 24.7386 27.4998C24.7386 28.2322 25.0295 28.9345 25.5473 29.4523L29.1223 32.9998L25.5473 36.5473C25.2896 36.803 25.085 37.1071 24.9454 37.4422C24.8058 37.7774 24.7339 38.1368 24.7339 38.4998C24.7339 38.8629 24.8058 39.2223 24.9454 39.5574C25.085 39.8925 25.2896 40.1967 25.5473 40.4523C25.803 40.7101 26.1071 40.9147 26.4422 41.0543C26.7774 41.1939 27.1368 41.2658 27.4998 41.2658C27.8629 41.2658 28.2223 41.1939 28.5574 41.0543C28.8925 40.9147 29.1967 40.7101 29.4523 40.4523L32.9998 36.8773L36.5473 40.4523C36.803 40.7101 37.1071 40.9147 37.4422 41.0543C37.7774 41.1939 38.1368 41.2658 38.4998 41.2658C38.8629 41.2658 39.2223 41.1939 39.5574 41.0543C39.8925 40.9147 40.1967 40.7101 40.4523 40.4523C40.7101 40.1967 40.9147 39.8925 41.0543 39.5574C41.1939 39.2223 41.2658 38.8629 41.2658 38.4998C41.2658 38.1368 41.1939 37.7774 41.0543 37.4422C40.9147 37.1071 40.7101 36.803 40.4523 36.5473L36.8773 32.9998L40.4523 29.4523C40.7101 29.1967 40.9147 28.8925 41.0543 28.5574C41.1939 28.2223 41.2658 27.8629 41.2658 27.4998C41.2658 27.1368 41.1939 26.7774 41.0543 26.4422C40.9147 26.1071 40.7101 25.803 40.4523 25.5473Z" fill="#F24E1E"/>
</svg>
