<svg width="43" height="42" viewBox="0 0 43 42" fill="none" xmlns="http://www.w3.org/2000/svg">
<path d="M21.5333 3.49854C18.0735 3.49854 14.6915 4.52447 11.8148 6.44659C8.93816 8.36872 6.69607 11.1007 5.37209 14.2971C4.04811 17.4935 3.70169 21.0107 4.37665 24.4039C5.05161 27.7972 6.71763 30.9141 9.16403 33.3605C11.6104 35.8069 14.7273 37.4729 18.1206 38.1479C21.5139 38.8228 25.0311 38.4764 28.2274 37.1524C31.4238 35.8284 34.1558 33.5864 36.0779 30.7097C38 27.833 39.026 24.451 39.026 20.9913C39.026 18.6941 38.5735 16.4194 37.6944 14.2971C36.8153 12.1748 35.5268 10.2464 33.9025 8.62204C32.2781 6.99769 30.3497 5.70918 28.2274 4.83009C26.1051 3.951 23.8304 3.49854 21.5333 3.49854ZM21.5333 34.9854C18.7655 34.9854 16.0598 34.1647 13.7585 32.627C11.4572 31.0893 9.66351 28.9037 8.60432 26.3466C7.54514 23.7895 7.26801 20.9757 7.80797 18.2611C8.34794 15.5465 9.68076 13.053 11.6379 11.0959C13.595 9.13876 16.0885 7.80594 18.8031 7.26597C21.5177 6.72601 24.3315 7.00314 26.8886 8.06232C29.4457 9.12151 31.6313 10.9152 33.169 13.2165C34.7067 15.5178 35.5274 18.2235 35.5274 20.9913C35.5274 24.7027 34.053 28.2622 31.4286 30.8866C28.8042 33.5111 25.2447 34.9854 21.5333 34.9854Z" fill="#F24E1E"/>
<path d="M26.2739 16.2506C26.1113 16.0866 25.9178 15.9565 25.7046 15.8677C25.4915 15.7789 25.2628 15.7332 25.0319 15.7332C24.801 15.7332 24.5723 15.7789 24.3592 15.8677C24.146 15.9565 23.9525 16.0866 23.7899 16.2506L21.5333 18.5246L19.2768 16.2506C18.9474 15.9212 18.5006 15.7361 18.0348 15.7361C17.569 15.7361 17.1222 15.9212 16.7928 16.2506C16.4634 16.58 16.2784 17.0267 16.2784 17.4926C16.2784 17.9584 16.4634 18.4052 16.7928 18.7346L19.0669 20.9911L16.7928 23.2477C16.6289 23.4103 16.4987 23.6038 16.4099 23.8169C16.3211 24.0301 16.2754 24.2587 16.2754 24.4897C16.2754 24.7206 16.3211 24.9492 16.4099 25.1624C16.4987 25.3756 16.6289 25.569 16.7928 25.7316C16.9554 25.8956 17.1489 26.0257 17.3621 26.1145C17.5752 26.2033 17.8039 26.2491 18.0348 26.2491C18.2657 26.2491 18.4944 26.2033 18.7075 26.1145C18.9207 26.0257 19.1142 25.8956 19.2768 25.7316L21.5333 23.4576L23.7899 25.7316C23.9525 25.8956 24.146 26.0257 24.3592 26.1145C24.5723 26.2033 24.801 26.2491 25.0319 26.2491C25.2628 26.2491 25.4915 26.2033 25.7046 26.1145C25.9178 26.0257 26.1113 25.8956 26.2739 25.7316C26.4378 25.569 26.568 25.3756 26.6568 25.1624C26.7456 24.9492 26.7913 24.7206 26.7913 24.4897C26.7913 24.2587 26.7456 24.0301 26.6568 23.8169C26.568 23.6038 26.4378 23.4103 26.2739 23.2477L23.9998 20.9911L26.2739 18.7346C26.4378 18.5719 26.568 18.3785 26.6568 18.1653C26.7456 17.9521 26.7913 17.7235 26.7913 17.4926C26.7913 17.2616 26.7456 17.033 26.6568 16.8198C26.568 16.6067 26.4378 16.4132 26.2739 16.2506Z" fill="#F24E1E"/>
</svg>
