<svg width="168" height="168" viewBox="0 0 168 168" fill="none" xmlns="http://www.w3.org/2000/svg">
<!-- <circle cx="84" cy="84" r="84" fill="#0D3A59"/> -->
<path d="M79.2702 125.614C115.318 125.614 144.54 123.462 144.54 120.807C144.54 118.153 115.318 116.001 79.2702 116.001C43.2224 116.001 14 118.153 14 120.807C14 123.462 43.2224 125.614 79.2702 125.614Z" fill="#1BA098"/>
<path d="M122.421 56.0328C123.382 56.0168 124.337 56.1897 125.231 56.5418C126.125 56.8938 126.94 57.4181 127.631 58.0846C128.321 58.7511 128.873 59.5468 129.255 60.4261C129.637 61.3054 129.841 62.2511 129.856 63.209V113.288C129.827 114.949 129.139 116.531 127.942 117.688C126.746 118.844 125.138 119.481 123.471 119.459H52.69C51.0232 119.481 49.4155 118.844 48.2188 117.688C47.0221 116.531 46.3341 114.949 46.3054 113.288V54.6303C46.3341 52.969 47.0221 51.3868 48.2188 50.2301C49.4155 49.0734 51.0232 48.4365 52.69 48.4589H79.9926C84.3233 48.4589 87.8306 51.8544 87.8306 56.037H122.421V56.0328Z" fill="#1BA098"/>
<path d="M123.458 119.668H52.69C50.9672 119.692 49.3054 119.033 48.0691 117.837C46.8328 116.641 46.123 115.005 46.0953 113.288V54.6303C46.123 52.9131 46.8328 51.277 48.0691 50.0808C49.3054 48.8846 50.9672 48.2261 52.69 48.2496H79.9926C84.3569 48.2496 87.923 51.6325 88.0364 55.8319H122.421C126.621 55.8319 130.049 59.1437 130.049 63.2132V113.288C130.021 115.004 129.312 116.639 128.077 117.836C126.841 119.032 125.181 119.691 123.458 119.668ZM52.69 48.6641C51.0779 48.6406 49.5223 49.2556 48.3646 50.3742C47.207 51.4927 46.5419 53.0234 46.5154 54.6303V113.288C46.543 114.894 47.2086 116.423 48.3661 117.541C49.5236 118.659 51.0786 119.273 52.69 119.25H123.458C125.07 119.273 126.625 118.659 127.782 117.541C128.94 116.423 129.605 114.894 129.633 113.288V63.2091C129.633 59.3698 126.399 56.2422 122.421 56.2422H87.8516C87.7959 56.2422 87.7425 56.2201 87.7031 56.1809C87.6637 56.1416 87.6416 56.0884 87.6416 56.0329C87.6416 51.9716 84.2182 48.6641 80.0136 48.6641H52.69Z" fill="#1BA098"/>
<path d="M57.8187 111.244V33.265H109.975L122.165 45.4193V109.892L57.8187 111.244Z" fill="#051622"/>
<path d="M115.709 49.4512H63.1616C63.1342 49.4512 63.1071 49.4457 63.0818 49.4352C63.0566 49.4246 63.0337 49.4091 63.0145 49.3896C62.9954 49.3701 62.9803 49.347 62.9702 49.3216C62.9601 49.2963 62.9552 49.2691 62.9558 49.2418C62.9558 49.187 62.9773 49.1344 63.0158 49.0953C63.0543 49.0561 63.1066 49.0336 63.1616 49.0325H115.709C115.764 49.0336 115.816 49.0561 115.855 49.0953C115.893 49.1344 115.915 49.187 115.915 49.2418C115.915 49.2691 115.91 49.2963 115.9 49.3216C115.89 49.347 115.875 49.3701 115.856 49.3896C115.837 49.4091 115.814 49.4246 115.788 49.4352C115.763 49.4457 115.736 49.4512 115.709 49.4512Z" fill="white"/>
<path d="M115.709 57.8164H63.1616C63.1059 57.8164 63.0525 57.7944 63.0131 57.7551C62.9737 57.7159 62.9516 57.6626 62.9516 57.6071C62.9516 57.5516 62.9737 57.4983 63.0131 57.4591C63.0525 57.4198 63.1059 57.3978 63.1616 57.3978H115.709C115.764 57.3978 115.818 57.4198 115.857 57.4591C115.897 57.4983 115.919 57.5516 115.919 57.6071C115.919 57.6626 115.897 57.7159 115.857 57.7551C115.818 57.7944 115.764 57.8164 115.709 57.8164Z" fill="white"/>
<path d="M115.709 66.1817H63.1616C63.1066 66.1806 63.0543 66.1581 63.0158 66.1189C62.9773 66.0798 62.9558 66.0272 62.9558 65.9724C62.9552 65.9451 62.9601 65.918 62.9702 65.8926C62.9803 65.8672 62.9954 65.8441 63.0145 65.8246C63.0337 65.8051 63.0566 65.7896 63.0818 65.779C63.1071 65.7685 63.1342 65.763 63.1616 65.763H115.709C115.736 65.763 115.763 65.7685 115.788 65.779C115.814 65.7896 115.837 65.8051 115.856 65.8246C115.875 65.8441 115.89 65.8672 115.9 65.8926C115.91 65.918 115.915 65.9451 115.915 65.9724C115.915 66.0272 115.893 66.0798 115.855 66.1189C115.816 66.1581 115.764 66.1806 115.709 66.1817Z" fill="white"/>
<path d="M115.709 74.5428H63.1616C63.1059 74.5428 63.0525 74.5207 63.0131 74.4815C62.9737 74.4422 62.9516 74.3889 62.9516 74.3334C62.9516 74.2779 62.9737 74.2247 63.0131 74.1854C63.0525 74.1461 63.1059 74.1241 63.1616 74.1241H115.709C115.764 74.1241 115.818 74.1461 115.857 74.1854C115.897 74.2247 115.919 74.2779 115.919 74.3334C115.919 74.3889 115.897 74.4422 115.857 74.4815C115.818 74.5207 115.764 74.5428 115.709 74.5428Z" fill="white"/>
<path d="M70.2393 39.3986H63.3128C63.2571 39.3986 63.2037 39.3766 63.1643 39.3373C63.1249 39.2981 63.1028 39.2448 63.1028 39.1893C63.1039 39.1341 63.1263 39.0815 63.1655 39.0425C63.2046 39.0034 63.2574 38.981 63.3128 38.9799H70.2393C70.2943 38.981 70.3466 39.0036 70.3851 39.0427C70.4236 39.0819 70.4451 39.1345 70.4451 39.1893C70.4457 39.2166 70.4407 39.2437 70.4306 39.2691C70.4206 39.2945 70.4055 39.3176 70.3863 39.3371C70.3671 39.3566 70.3443 39.3721 70.319 39.3826C70.2938 39.3932 70.2667 39.3986 70.2393 39.3986Z" fill="white"/>
<path d="M96.9546 58.3838L40.4999 52.9852L36.5772 93.741L93.032 99.1395L96.9546 58.3838Z" fill="white"/>
<path d="M93.0391 99.358L36.5604 93.9612C36.5031 93.9549 36.4507 93.9263 36.4145 93.8816C36.3783 93.8369 36.3613 93.7797 36.3672 93.7226L40.2862 52.9556C40.2915 52.8985 40.3192 52.8458 40.3632 52.809C40.4072 52.7722 40.4641 52.7541 40.5214 52.7588L96.9791 58.1556C97.0075 58.1576 97.0351 58.1654 97.0604 58.1785C97.0857 58.1915 97.1081 58.2096 97.1261 58.2315C97.1442 58.2534 97.1576 58.2788 97.1656 58.306C97.1735 58.3333 97.1758 58.3619 97.1723 58.39L93.2533 99.1487C93.251 99.1773 93.2428 99.2052 93.229 99.2304C93.2153 99.2556 93.1964 99.2777 93.1735 99.2952C93.1372 99.3309 93.0898 99.353 93.0391 99.358ZM36.8166 93.5677L92.8417 98.9226L96.7228 58.591L40.6978 53.2235L36.8166 93.5677Z" fill="#1BA098"/>
<path d="M88.6203 95.4727H88.5993L41.6471 90.9844C41.6189 90.9818 41.5915 90.9736 41.5665 90.9604C41.5415 90.9472 41.5194 90.9291 41.5014 90.9073C41.4835 90.8855 41.47 90.8604 41.4619 90.8334C41.4537 90.8064 41.451 90.778 41.4539 90.7499L44.7134 56.8367C44.7157 56.8081 44.7239 56.7803 44.7377 56.755C44.7514 56.7298 44.7704 56.7077 44.7932 56.6902C44.8144 56.6719 44.8391 56.658 44.8658 56.6494C44.8925 56.6408 44.9207 56.6375 44.9486 56.6399L91.9092 61.1282C91.9374 61.1308 91.9648 61.139 91.9898 61.1522C92.0148 61.1654 92.0369 61.1835 92.0549 61.2053C92.0728 61.2271 92.0863 61.2522 92.0944 61.2792C92.1026 61.3062 92.1053 61.3346 92.1024 61.3627L88.8429 95.2759C88.8409 95.3046 88.8327 95.3325 88.819 95.3578C88.8052 95.3831 88.7861 95.4051 88.7631 95.4224C88.7236 95.4566 88.6726 95.4746 88.6203 95.4727ZM41.8991 90.5741L88.4229 95.0205L91.632 61.5511L45.1166 57.1047L41.8991 90.5741Z" fill="#1BA098"/>
<path d="M78.4427 82.167C78.4115 82.1673 78.3806 82.1607 78.3522 82.1477C78.3239 82.1347 78.2988 82.1155 78.2789 82.0916C78.1108 81.9032 61.7124 63.1881 59.65 61.7227C58.8562 61.1533 53.9375 63.0834 43.6507 70.7202C43.6042 70.7488 43.5487 70.7591 43.4951 70.7489C43.4414 70.7388 43.3935 70.7089 43.3608 70.6653C43.3281 70.6217 43.313 70.5675 43.3185 70.5133C43.3239 70.4591 43.3495 70.409 43.3903 70.3727C43.4281 70.3476 46.9774 67.7141 50.741 65.3025C58.4655 60.3453 59.5618 61.1156 59.9021 61.371C62.0023 62.8657 77.926 81.0491 78.6023 81.8069C78.6426 81.8476 78.6651 81.9025 78.6651 81.9597C78.6651 82.0169 78.6426 82.0718 78.6023 82.1125C78.5579 82.1501 78.5009 82.1695 78.4427 82.167Z" fill="#1BA098"/>
<path d="M90.334 79.0143C90.2962 79.0143 90.259 79.0047 90.2259 78.9864C90.1928 78.968 90.165 78.9416 90.145 78.9096C86.7217 73.2909 82.7649 67.4168 82.0676 67.3121C81.362 67.4126 75.5822 72.0307 72.1085 74.9154C72.0635 74.9471 72.0081 74.9607 71.9535 74.9534C71.8988 74.9461 71.849 74.9185 71.8139 74.8762C71.7788 74.8338 71.7611 74.7797 71.7643 74.7249C71.7676 74.6701 71.7915 74.6185 71.8312 74.5804C72.7595 73.8101 80.9377 67.0442 82.0214 66.8809C82.3785 66.8223 83.9284 67.8815 90.5189 78.6877C90.5481 78.7372 90.5566 78.7962 90.5425 78.8519C90.5283 78.9075 90.4926 78.9554 90.4432 78.985C90.4104 79.0049 90.3725 79.0151 90.334 79.0143Z" fill="#1BA098"/>
<path d="M73.2468 67.0107C72.891 67.0107 72.5433 66.9055 72.2475 66.7084C71.9518 66.5113 71.7214 66.2312 71.5854 65.9035C71.4495 65.5758 71.4142 65.2153 71.4839 64.8676C71.5536 64.5199 71.7252 64.2006 71.977 63.9501C72.2289 63.6997 72.5496 63.5294 72.8986 63.4607C73.2476 63.392 73.6092 63.4281 73.9377 63.5644C74.2661 63.7007 74.5466 63.931 74.7436 64.2262C74.9407 64.5215 75.0454 64.8683 75.0445 65.2229C75.0434 65.6974 74.8535 66.1522 74.5165 66.4873C74.1795 66.8225 73.7228 67.0107 73.2468 67.0107ZM73.2468 63.8622C72.9768 63.8622 72.7128 63.942 72.4883 64.0915C72.2639 64.241 72.0889 64.4536 71.9856 64.7022C71.8822 64.9508 71.8552 65.2244 71.9079 65.4884C71.9605 65.7523 72.0906 65.9948 72.2815 66.1851C72.4724 66.3754 72.7156 66.505 72.9805 66.5575C73.2453 66.61 73.5197 66.583 73.7692 66.4801C74.0186 66.3771 74.2318 66.2027 74.3818 65.9789C74.5318 65.7551 74.6119 65.492 74.6119 65.2229C74.6119 64.862 74.4681 64.5159 74.2121 64.2607C73.9561 64.0056 73.6088 63.8622 73.2468 63.8622Z" fill="#1BA098"/>
<path d="M74.5657 70.0964H146.733C149.871 70.0964 151.538 72.2693 150.45 74.9489L134.22 114.979C133.136 117.659 129.709 119.832 126.571 119.832H54.3995C51.2618 119.832 49.5985 117.659 50.6864 114.979L66.9125 74.9489C68.0005 72.2693 71.4238 70.0964 74.5657 70.0964Z" fill="white"/>
<path d="M126.571 120.049H54.3995C52.7488 120.049 51.3921 119.446 50.678 118.375C50.0479 117.433 49.9597 116.176 50.468 114.92L66.6941 74.8903C67.8115 72.1395 71.3146 69.9038 74.5489 69.9038H146.733C148.388 69.9038 149.745 70.5067 150.454 71.5576C151.106 72.5163 151.177 73.7598 150.652 75.0536L134.422 115.08C133.308 117.809 129.784 120.049 126.571 120.049ZM74.5657 70.3141C71.512 70.3141 68.1685 72.4075 67.1142 75.0326L50.888 115.059C50.4218 116.214 50.468 117.315 51.0434 118.153C51.6735 119.082 52.8958 119.618 54.4037 119.618H126.571C129.625 119.618 132.964 117.499 134.022 114.899L150.249 74.8693C150.719 73.7138 150.669 72.6168 150.097 71.7795C149.467 70.8458 148.241 70.3141 146.737 70.3141H74.5657Z" fill="#1BA098"/>
<path d="M122.165 45.6202H109.984C109.955 45.6208 109.927 45.6157 109.9 45.6052C109.874 45.5947 109.85 45.5791 109.829 45.5592C109.809 45.5393 109.793 45.5156 109.782 45.4894C109.771 45.4632 109.765 45.4351 109.765 45.4067V33.2775C109.756 33.2451 109.754 33.211 109.76 33.1779C109.767 33.1448 109.78 33.1135 109.801 33.0866C109.821 33.0597 109.847 33.0379 109.878 33.0229C109.908 33.0078 109.941 33 109.975 33C110.009 33 110.042 33.0078 110.073 33.0229C110.103 33.0379 110.129 33.0597 110.15 33.0866C110.17 33.1135 110.184 33.1448 110.19 33.1779C110.196 33.211 110.194 33.2451 110.185 33.2775V45.189H122.161C122.193 45.1797 122.227 45.1781 122.26 45.1843C122.294 45.1905 122.325 45.2042 122.352 45.2245C122.379 45.2448 122.401 45.2711 122.416 45.3012C122.431 45.3314 122.439 45.3646 122.439 45.3983C122.439 45.432 122.431 45.4653 122.416 45.4954C122.401 45.5256 122.379 45.5519 122.352 45.5722C122.325 45.5924 122.294 45.6062 122.26 45.6124C122.227 45.6185 122.193 45.6169 122.161 45.6077L122.165 45.6202Z" fill="#1BA098"/>
<path d="M138.387 83.3267H113.667C113.41 83.343 113.152 83.2935 112.919 83.1828C112.686 83.0722 112.485 82.9041 112.336 82.6945C112.19 82.4408 112.11 82.1554 112.101 81.8634C112.092 81.5714 112.156 81.2817 112.285 81.0198L113.125 78.9975C113.397 78.3944 113.827 77.8754 114.369 77.4952C114.912 77.115 115.547 76.8876 116.209 76.8371H140.932C141.189 76.8228 141.446 76.8732 141.679 76.9837C141.912 77.0942 142.113 77.2612 142.264 77.4694C142.409 77.723 142.49 78.0084 142.498 78.3005C142.507 78.5925 142.444 78.8822 142.314 79.1441L141.474 81.1705C141.202 81.7737 140.771 82.2925 140.228 82.6721C139.685 83.0516 139.048 83.2778 138.387 83.3267ZM116.217 77.2391C115.64 77.2857 115.087 77.486 114.615 77.8189C114.143 78.1518 113.769 78.6052 113.533 79.1315L112.693 81.1579C112.587 81.3558 112.532 81.5765 112.532 81.8006C112.532 82.0247 112.587 82.2454 112.693 82.4433C112.808 82.5878 112.957 82.7017 113.127 82.7748C113.297 82.8478 113.483 82.8778 113.667 82.862H138.387C138.959 82.8197 139.51 82.6254 139.982 82.2993C140.454 81.9731 140.83 81.527 141.071 81.0072L141.911 78.985C142.017 78.7865 142.072 78.5651 142.072 78.3402C142.072 78.1154 142.017 77.894 141.911 77.6954C141.799 77.5468 141.652 77.4287 141.482 77.3518C141.313 77.275 141.126 77.242 140.941 77.2558L116.217 77.2391Z" fill="#1BA098"/>
</svg>
